<svg width="89" height="22" viewBox="0 0 89 22" fill="none" xmlns="http://www.w3.org/2000/svg">
<path d="M7.54771 4.10366H2.41141V3.57927C2.41141 2.72561 3.09866 2.03049 3.94266 2.03049H10.2907V0H3.64123C1.63373 0 0 1.65244 0 3.68292V9H2.41141V6.0061H7.54771V4.10366Z" fill="white"/>
<path d="M36.2163 0.0178223H33.8049V5.47513C33.8049 6.46294 32.6354 7.0727 30.7605 7.0727C28.8796 7.0727 27.7161 6.45684 27.7161 5.47513V0.0178223H25.3047V5.75562C25.3047 7.68855 27.493 8.98733 30.7605 8.98733C34.0219 8.98733 36.2163 7.68855 36.2163 5.75562V0.0178223Z" fill="white"/>
<path d="M42.8841 0.0178223H40.4727V8.73732H42.8841V0.0178223Z" fill="white"/>
<path d="M56.1093 4.4327C56.1093 4.90831 55.9284 5.39611 55.5908 5.79855C55.0664 6.43879 54.1983 6.83513 53.3181 6.83513H49.5442V1.90831H53.306C54.9277 1.91441 56.1093 2.97538 56.1093 4.4327ZM53.1734 0.0180664H47.1328V8.73757H53.4628C54.8192 8.73757 56.0731 8.34732 57.0075 7.64001C58.0866 6.82293 58.6292 5.75587 58.6292 4.47538C58.6292 1.76197 56.4891 0.0180664 53.1734 0.0180664Z" fill="white"/>
<path d="M65.0306 1.91416H69.7147C70.5225 1.91416 71.0229 2.28001 71.0229 2.85928C71.0229 2.86538 71.0229 3.08489 71.0229 3.10318C71.0169 3.73123 70.5467 4.08489 69.7268 4.08489H65.0306V1.91416ZM73.4102 3.17026V2.92026C73.4102 1.18245 72.0236 0.0178223 69.9559 0.0178223H62.6191V8.73732H65.0306V5.98733L69.142 5.99342C69.2746 5.99952 69.4434 5.99952 69.6363 5.99342C70.4381 5.99952 70.9325 6.35928 70.9325 6.93855V8.73732H73.3198V6.99952C73.3198 6.28001 73.0786 5.64586 72.6144 5.14586C73.1389 4.66416 73.4102 3.99953 73.4102 3.17026Z" fill="white"/>
<path d="M15.9384 5.02392V0.0178223H13.5391V4.93855C13.5391 6.99953 15.1969 8.68245 17.2406 8.68245H22.6602V6.50562H17.3611C16.5895 6.50562 15.9384 5.8227 15.9384 5.02392Z" fill="white"/>
<path d="M82.808 1.99369L84.4839 4.99979C83.9956 4.91442 83.3385 4.81686 82.6211 4.81686C82.1509 4.81686 81.6505 4.85954 81.1501 4.9693L82.808 1.99369ZM88.5954 5.9571L88.7099 5.88393L87.8056 4.35954L87.6911 4.43272C87.3776 4.62174 87.1184 4.76198 86.8833 4.87174L84.2126 0.036377H81.4335L76.6348 8.7071H79.0944L79.438 8.08516C80.7402 6.28028 82.7175 6.4693 84.502 6.79857C84.7974 6.85345 85.0265 6.89613 85.2314 6.90832C85.346 6.91442 85.4545 6.92052 85.557 6.92661L86.5396 8.7071H88.9993L87.7393 6.42661C88.0046 6.29857 88.2879 6.14613 88.5954 5.9571Z" fill="white"/>
<path d="M7.00396 15.3754C6.8124 15.223 6.47118 15.1468 5.98629 15.1468H2.45438V17.4905H6.02221C6.48914 17.4905 6.81839 17.4206 7.00995 17.2745C7.20151 17.1284 7.2913 16.8236 7.2913 16.3536C7.2913 15.8518 7.19553 15.5279 7.00396 15.3754ZM9.06324 13.6479C9.53616 14.0797 9.76963 14.9499 9.76963 16.2519C9.76963 17.4841 9.58405 18.3606 9.21889 18.8624C8.85373 19.3705 8.08149 19.6246 6.91416 19.6246H6.2856H2.45438V21.8222H0V13H6.53104C7.74626 13 8.59032 13.216 9.06324 13.6479Z" fill="#2CB5D3"/>
<path d="M19.0188 17.1798C19.1565 17.0274 19.2223 16.6971 19.2223 16.1763C19.2223 15.8841 19.1984 15.6682 19.1445 15.5284C19.0906 15.3887 18.9829 15.2871 18.8152 15.2363C18.6476 15.1855 18.5159 15.1537 18.4082 15.141C18.3004 15.1346 18.1807 15.1283 18.037 15.1283H17.8455H13.9544V17.4021H17.6659H17.9772C18.5339 17.4085 18.8811 17.3322 19.0188 17.1798ZM21.084 13.6039C21.4971 14.0168 21.7066 14.7409 21.7066 15.7825C21.7066 16.1763 21.6887 16.5193 21.6468 16.7987C21.6049 17.0782 21.527 17.3259 21.4073 17.5355C21.2876 17.7451 21.1439 17.8975 20.9823 17.9991C20.8206 18.1008 20.4854 18.2469 19.9646 18.431C20.5273 18.5073 20.9464 18.666 21.2098 18.901C21.4732 19.1361 21.6108 19.5426 21.6108 20.1269V21.8227H19.1205V20.978C19.1205 20.5461 19.0846 20.2031 19.0188 19.949C18.9529 19.695 18.6297 19.5616 18.055 19.5616H13.9544V21.8227H11.5V13.0006H19.0068C19.9766 12.9879 20.665 13.1911 21.084 13.6039Z" fill="#2CB5D3"/>
<path d="M28.9063 19.8278L30.1634 19.8151C30.8578 19.8151 31.3547 19.7325 31.66 19.5738C31.9653 19.4086 32.115 19.0085 32.115 18.3606L32.1389 17.1729C32.1389 16.7664 32.115 16.4234 32.073 16.1313C32.0252 15.8455 31.9354 15.6359 31.8037 15.4961C31.666 15.3564 31.4624 15.2675 31.1931 15.223C30.9237 15.1785 30.6363 15.1595 30.3251 15.1595L27.8826 15.1722C27.3259 15.1722 26.9009 15.2357 26.6136 15.3564C26.3202 15.4771 26.1586 15.7438 26.1107 16.144C26.0628 16.5441 26.0449 16.8807 26.0449 17.1411V17.3825V17.7382C26.0449 18.5512 26.1287 19.0974 26.3023 19.3769C26.4759 19.6627 26.9069 19.8024 27.5893 19.8024L28.9063 19.8278ZM30.8758 13.0064C32.3125 13.0064 33.2943 13.2668 33.8211 13.7876C34.3478 14.3084 34.6112 15.35 34.6112 16.9061V17.3317C34.6112 19.1673 34.4017 20.3931 33.9827 21.0155C33.5636 21.638 32.5041 21.9492 30.804 21.9492L28.9542 21.9873L28.182 22L26.5118 21.9365C25.5779 21.9365 24.8536 21.7078 24.3448 21.2442C23.8359 20.7805 23.5845 20.0311 23.5845 19.0021L23.5605 17.3761C23.5605 15.585 23.7701 14.4164 24.1891 13.8638C24.6081 13.3112 25.6019 13.0381 27.1763 13.0381L28.9183 13L30.8758 13.0064Z" fill="#2CB5D3"/>
</svg>
