<svg xmlns="http://www.w3.org/2000/svg" width="128" height="96" viewBox="0 0 128 96" fill="none">
  <path d="M12.5303 59.5C10.9903 49.38 12.8203 38.95 18.1403 30.22C23.6903 21.11 33.7803 12 51.9303 12C79.6003 12 97.7803 29.13 106.48 39.9C111.69 46.35 115.12 54.13 115.89 62.4C115.9 62.56 115.92 62.72 115.93 62.88C116.98 75.85 105.3 86.15 92.5703 83.62C89.7803 83.06 87.0703 82.36 84.5003 81.57C74.1503 78.4 63.0703 78.59 52.7603 81.88C50.6803 82.54 48.2103 83.14 45.2803 83.62C29.6903 86.19 15.0703 75.63 12.6003 59.99C12.5703 59.83 12.5503 59.67 12.5303 59.51V59.5Z" fill="url(#paint0_linear_2204_86891)" stroke="#9C9C9C" stroke-miterlimit="10"/>
  <path d="M20.42 56.9402C19.18 49.0702 20.66 40.9602 24.95 34.1602C29.43 27.0802 37.58 19.9902 52.25 19.9902C74.6 19.9902 89.29 33.3102 96.31 41.6902C100.52 46.7102 103.29 52.7602 103.91 59.1902C103.92 59.3102 103.93 59.4402 103.94 59.5602C104.79 69.6502 95.35 77.6602 85.07 75.6902C82.81 75.2602 80.62 74.7102 78.55 74.1002C70.19 71.6302 61.24 71.7802 52.92 74.3402C51.24 74.8602 49.24 75.3202 46.88 75.7002C34.29 77.7002 22.48 69.4902 20.48 57.3202C20.46 57.1902 20.44 57.0702 20.42 56.9502V56.9402Z" fill="url(#paint1_linear_2204_86891)" stroke="url(#paint2_linear_2204_86891)" stroke-miterlimit="10"/>
  <path d="M24.3798 55.2401C23.2598 48.8701 24.5898 42.3001 28.4798 36.8001C32.5298 31.0701 39.9098 25.3301 53.1798 25.3301C73.3998 25.3301 86.6898 36.1201 93.0398 42.9001C96.8498 46.9601 99.3498 51.8601 99.9198 57.0701C99.9298 57.1701 99.9398 57.2701 99.9498 57.3701C100.72 65.5401 92.1798 72.0201 82.8798 70.4301C80.8398 70.0801 78.8598 69.6301 76.9798 69.1401C69.4198 67.1401 61.3198 67.2601 53.7898 69.3301C52.2698 69.7501 50.4598 70.1201 48.3198 70.4301C36.9298 72.0501 26.2498 65.4001 24.4398 55.5501C24.4198 55.4501 24.3998 55.3501 24.3898 55.2501L24.3798 55.2401Z" fill="url(#paint3_linear_2204_86891)"/>
  <defs>
    <linearGradient id="paint0_linear_2204_86891" x1="12.0003" y1="48" x2="116" y2="48" gradientUnits="userSpaceOnUse">
      <stop stop-color="#D7D7D7"/>
      <stop offset="1" stop-color="#575756"/>
    </linearGradient>
    <linearGradient id="paint1_linear_2204_86891" x1="20" y1="48.0002" x2="104" y2="48.0002" gradientUnits="userSpaceOnUse">
      <stop stop-color="#575756"/>
      <stop offset="1" stop-color="#D7D7D7"/>
    </linearGradient>
    <linearGradient id="paint2_linear_2204_86891" x1="19.5" y1="48.0002" x2="104.5" y2="48.0002" gradientUnits="userSpaceOnUse">
      <stop stop-color="#575756"/>
      <stop offset="1" stop-color="#D7D7D7"/>
    </linearGradient>
    <linearGradient id="paint3_linear_2204_86891" x1="23.9998" y1="48.0001" x2="99.9998" y2="48.0001" gradientUnits="userSpaceOnUse">
      <stop stop-color="#3C3C3B"/>
      <stop offset="1" stop-color="#848484"/>
    </linearGradient>
  </defs>
</svg>